HIERARCHY
ROOT Hips
{
	OFFSET	0.00	0.00	0.00
	CHANNELS 6 Xposition Yposition Zposition Zrotation Xrotation Yrotation
	JOINT Spine
	{
		OFFSET	 0.00	0.01	 0.00
		CHANNELS 3 Zrotation Xrotation Yrotation
		JOINT Spine1
		{
			OFFSET	 0.00	 2.45913012437421	 0.00
			CHANNELS 3 Zrotation Xrotation Yrotation
            JOINT Neck
            {
                OFFSET	 0.00	 2.48462964506057	 0.00
                CHANNELS 3 Zrotation Xrotation Yrotation
                JOINT Head
                {
                    OFFSET	 0.00	 0.927524780924562	 0.00
                    CHANNELS 3 Zrotation Xrotation Yrotation
                    End Site 
                    {
                        OFFSET	 0.00	 1.14999962169752	 0.00
                    }
                }
            }
			JOINT LeftShoulder
			{
				OFFSET	 0.00	 2.48462964506057	 0.00
				CHANNELS 3 Zrotation Xrotation Yrotation
				JOINT LeftUpArm
				{
					OFFSET	 0.00	 1.24881979654096	 0.00
					CHANNELS 3 Zrotation Xrotation Yrotation
					JOINT LeftForeArm
					{
						OFFSET	 0.00	2.59758046908119	 0.00
						CHANNELS 3 Zrotation Xrotation Yrotation
						JOINT LeftHand
						{
							OFFSET	 0.00	2.45542024364365	 0.00
							CHANNELS 3 Zrotation Xrotation Yrotation
							JOINT LeftHandThumb 
							{
								OFFSET	 0.00	0.00	 0.00
								CHANNELS 3 Zrotation Xrotation Yrotation
								End Site
								{
									OFFSET	 0.00	0.00	1.00000003353624
								}
							}
							JOINT L_Wrist_End 
							{
								OFFSET	 0.00	0.99999967115358	 0.00
								CHANNELS 3 Zrotation Xrotation Yrotation
								End Site 
								{
									OFFSET	 0.00	 0.00	 0.00
								}
							}
						}
					}
				}
			}
			JOINT RightShoulder
			{
				OFFSET	 0.00	 2.48462964506057	 0.00
				CHANNELS 3 Zrotation Xrotation Yrotation
				JOINT RightUpArm
				{
					OFFSET	 0.00	 1.24881979654096	 0.00
					CHANNELS 3 Zrotation Xrotation Yrotation
					JOINT RightForeArm
					{
						OFFSET	 0.00	2.59758046908119	 0.00
						CHANNELS 3 Zrotation Xrotation Yrotation
						JOINT RightHand
						{
							OFFSET	 0.00	2.45542024364365	 0.00
							CHANNELS 3 Zrotation Xrotation Yrotation
							JOINT RightHandThumb 
							{
								OFFSET	 0.00	0.00	 0.00
								CHANNELS 3 Zrotation Xrotation Yrotation
								End Site
								{
									OFFSET	 0.00	0.00	1.00000003353624
								}
							}
							JOINT R_Wrist_End 
							{
								OFFSET	 0.00	0.99999967115358	 0.00
								CHANNELS 3 Zrotation Xrotation Yrotation
								End Site 
								{
									OFFSET	 0.00	 0.00	 0.00
								}
							}
						}
					}
				}
			}
		}
	}
	JOINT LeftUpLeg
	{
		OFFSET	 1.2719394002717	 0.00	 0.00
		CHANNELS 3 Zrotation Xrotation Yrotation
		JOINT LeftLowLeg
		{
			OFFSET	 0.00	-4.3429100912261	 0.00
			CHANNELS 3 Zrotation Xrotation Yrotation
			JOINT LeftFoot
			{
				OFFSET	 0.00	-4.48767017425826	 0.00
				CHANNELS 3 Zrotation Xrotation Yrotation
				JOINT LeftToeBase
                {
                    OFFSET	 0.00	0.00	 1.51507020887566
                    CHANNELS 3 Zrotation Xrotation Yrotation
                    End Site 
                    {
                        OFFSET	 0.00	0.00	 0.75000010571191
                    }
                }
			}
		}
	}
	JOINT RightUpLeg
	{
		OFFSET	 -1.2719393604653	 0.00	 0.00
		CHANNELS 3 Zrotation Xrotation Yrotation
		JOINT RightLowLeg
		{
			OFFSET	 0.00	-4.3429100912261	 0.00
			CHANNELS 3 Zrotation Xrotation Yrotation
			JOINT RightFoot
			{
				OFFSET	 0.00	-4.48767017425826	 0.00
				CHANNELS 3 Zrotation Xrotation Yrotation
				JOINT RightToeBase
                {
                    OFFSET	 0.00	0.00	 1.51507020887566
                    CHANNELS 3 Zrotation Xrotation Yrotation
                    End Site 
                    {
                        OFFSET	 0.00	0.00	 0.749999965609858
                    }
                }   
			}
		}
	}
}
MOTION 
Frames:	6 
Frame Time: 0.02 
  -1.6000399780273438 6.1512298583984375 0.8274250030517578 -5.99348 -0.441854 353.277 6.49876 2.99249 24.948 10.1367 -3.7314 -36.6115 35.8562 73.6113 289.399 45.6787 -58.5422 30.7532 -117.6741 -17.4254 -13.0949 2.79343 53.1968 -38.1048 0.0 136.484 0.0 60.5825 10.5945 -9.73797 0.0 0.0 0.0 0.0 0.0 0.0 94.26074 3.45597 5.05165 2.59897 27.1585 49.6583 0.0 133.839 0.0 -56.8161 -9.20413 25.8492 0.0 0.0 0.0 0.0 0.0 0.0 2.87894 -1.50402 3.29177 0.0 10.1094 0.0 8.09391 24.33342 4.89151 0.0 -26.9009 0.0 10.7652 -26.9097 358.322 0.0 31.476 0.0 20.9758 34.8535 -21.1773 0.0 -30.928001 0.0 
  -1.6132899475097657 6.156279907226563 0.8239669799804688 -6.22891 -0.833528 352.771 4.04253 4.7127 23.1518 13.9025 -7.33386 -38.1148 24.4416 75.6711 301.048 38.028 -58.8158 23.6921 -121.4068 -19.887 -14.0426 -0.0793509 53.2516 -34.3736 0.0 132.183 0.0 65.9908 9.56861 -12.976 0.0 0.0 0.0 0.0 0.0 0.0 91.35721 7.6928 4.69415 5.46564 25.201 46.8369 0.0 130.656 0.0 -55.2457 -10.257 24.8803 0.0 0.0 0.0 0.0 0.0 0.0 3.01969 -1.10628 3.18885 0.0 10.3382 0.0 8.44279 24.03739 5.0686 0.0 -26.8503 0.0 10.1903 -26.147 358.42 0.0 31.5456 0.0 20.317 34.9875 -21.5436 0.0 -30.222 0.0 
  -1.6235299682617188 6.167830200195312 0.8226190185546876 -6.43566 0.230247 352.47 1.93267 5.14242 21.4096 17.6829 -10.8403 -39.361 8.24944 76.9149 317.616 30.3481 -58.4483 16.2768 -125.1606 -21.6117 -15.2259 -3.23809 52.9046 -30.5289 0.0 126.664 0.0 69.4576 9.49276 -13.5432 0.0 0.0 0.0 0.0 0.0 0.0 88.26197 11.2348 6.42902 9.08628 23.6937 40.9905 0.0 127.072 0.0 -56.2538 -9.49767 24.6762 0.0 0.0 0.0 0.0 0.0 0.0 3.29243 -2.19304 2.95919 0.0 10.5871 0.0 8.90044 23.71489 4.92525 0.0 -26.7309 0.0 9.77651 -26.5729 358.403 0.0 31.3097 0.0 20.3052 35.1202 -22.0884 0.0 -29.521801 0.0 
  -1.6385699462890626 6.170579833984375 0.8235369873046875 -6.73343 -0.808262 351.966 0.47148 7.38984 20.3561 20.0145 -13.0712 -40.1663 -4.4746 76.9117 330.752 24.7148 -57.059 10.8343 -127.3125 -22.2241 -16.5759 -8.24724 52.4156 -25.3771 0.0 120.44 0.0 69.2235 9.70703 -12.6343 0.0 0.0 0.0 0.0 0.0 0.0 86.24189 13.4437 6.55573 11.4228 22.5791 37.6398 0.0 123.098 0.0 -53.4071 -10.5137 25.6343 0.0 0.0 0.0 0.0 0.0 0.0 3.38984 -1.09961 2.99836 0.0 10.769 0.0 9.52664 23.32483 4.37696 0.0 -26.767399 0.0 9.21038 -24.9 358.308 0.0 31.1975 0.0 21.4921 34.6394 -23.0428 0.0 -28.906 0.0 
  -1.6514399719238282 6.173670043945313 0.8211239624023438 -6.84254 -0.285531 351.397 -0.224198 7.95954 19.5234 21.0744 -14.1569 -40.9289 -9.73714 77.3533 335.881 21.8826 -57.269 8.69238 -128.5837 -22.6431 -18.3852 -14.2116 51.8621 -19.4072 0.0 114.163 0.0 65.3549 9.07045 -10.1747 0.0 0.0 0.0 0.0 0.0 0.0 85.75251 15.1143 5.95218 12.5889 21.4477 35.0943 0.0 119.024 0.0 -50.9036 -10.7558 26.3759 0.0 0.0 0.0 0.0 0.0 0.0 3.45923 -1.55809 2.88247 0.0 10.8766 0.0 10.2182 23.192131 3.90998 0.0 -26.8848 0.0 8.92873 -24.7064 359.133 0.0 30.4477 0.0 23.5216 35.8535 -24.9101 0.0 -31.5608 0.0 
  -1.6655299377441406 6.174099731445312 0.8195400238037109 -6.95895 -0.105821 350.695 -0.723547 8.56651 18.994 21.8334 -14.5687 -41.6174 -16.2216 77.3977 342.518 19.8904 -57.0352 6.66308 -129.94391 -22.6265 -17.8383 -16.1467 51.9316 -17.5894 0.0 107.797 0.0 60.9878 6.62623 -8.58267 0.0 0.0 0.0 0.0 0.0 0.0 84.88606 15.9038 9.0908 15.648 19.9475 28.1748 0.0 114.694 0.0 -49.5002 -10.0622 27.0578 0.0 0.0 0.0 0.0 0.0 0.0 3.48284 -1.60203 2.53676 0.0 10.9058 0.0 10.6741 23.140839 3.60925 0.0 -26.9191 0.0 8.6718 -24.2262 359.475 0.0 30.2249 0.0 24.237 36.2122 -25.8316 0.0 -31.285 0.0 
